<svg xmlns="http://www.w3.org/2000/svg" viewBox="0 0 1270.57 217.53"><defs><style>.cls-1,.cls-2{fill:none;stroke:#818181;stroke-linecap:round;stroke-linejoin:round;stroke-width:0.5px;}.cls-2{stroke-dasharray:0 5.99;}.cls-3{fill:#94c733;}.cls-10,.cls-12,.cls-16,.cls-20,.cls-22,.cls-24,.cls-26,.cls-28,.cls-30,.cls-31,.cls-33,.cls-35,.cls-36,.cls-37,.cls-38,.cls-39,.cls-4,.cls-41,.cls-42,.cls-43,.cls-44,.cls-45,.cls-46,.cls-47,.cls-50,.cls-51,.cls-52,.cls-53,.cls-54,.cls-9{font-size:10px;fill:#56575c;font-family:DINNextLTPro-Light, DIN Next LT Pro;font-weight:300;}.cls-4{letter-spacing:-0.04em;}.cls-5{letter-spacing:0.02em;}.cls-6{letter-spacing:0.05em;}.cls-7{letter-spacing:0.02em;}.cls-8{letter-spacing:0.03em;}.cls-15,.cls-9{letter-spacing:0.03em;}.cls-10{letter-spacing:0.02em;}.cls-11{letter-spacing:0.05em;}.cls-12{letter-spacing:0em;}.cls-13{letter-spacing:-0.02em;}.cls-14{letter-spacing:0.05em;}.cls-16{letter-spacing:0.02em;}.cls-17{letter-spacing:0.01em;}.cls-18,.cls-38{letter-spacing:0.02em;}.cls-19{letter-spacing:0.04em;}.cls-20{letter-spacing:0em;}.cls-21{letter-spacing:0.03em;}.cls-22{letter-spacing:0.01em;}.cls-23{letter-spacing:0.04em;}.cls-24{letter-spacing:0em;}.cls-25{letter-spacing:0.04em;}.cls-26{letter-spacing:0.01em;}.cls-27{letter-spacing:-0.02em;}.cls-28{letter-spacing:0.02em;}.cls-29{letter-spacing:0.04em;}.cls-30{letter-spacing:0.02em;}.cls-31{letter-spacing:0em;}.cls-32{letter-spacing:-0.02em;}.cls-33{letter-spacing:0em;}.cls-34,.cls-39{letter-spacing:0.03em;}.cls-35{letter-spacing:0.02em;}.cls-36{letter-spacing:0.02em;}.cls-37{letter-spacing:0.03em;}.cls-40{letter-spacing:0.04em;}.cls-41{letter-spacing:0.01em;}.cls-42{letter-spacing:0.03em;}.cls-43{letter-spacing:0.03em;}.cls-44{letter-spacing:-0.03em;}.cls-45{letter-spacing:-0.07em;}.cls-46{letter-spacing:-0.05em;}.cls-47{letter-spacing:-0.04em;}.cls-48{letter-spacing:0.04em;}.cls-49{letter-spacing:0.03em;}.cls-50{letter-spacing:-0.04em;}.cls-51{letter-spacing:-0.05em;}.cls-52{letter-spacing:-0.04em;}.cls-53{letter-spacing:-0.06em;}.cls-54{letter-spacing:-0.04em;}</style></defs><title>stats-img_1</title><g id="Layer_2" data-name="Layer 2"><g id="Gráfica"><line class="cls-1" x1="30.32" y1="8.4" x2="30.32" y2="8.4"/><line class="cls-2" x1="36.31" y1="8.4" x2="1267.32" y2="8.4"/><line class="cls-1" x1="1270.32" y1="8.4" x2="1270.32" y2="8.4"/><line class="cls-1" x1="30.32" y1="54.4" x2="30.32" y2="54.4"/><line class="cls-2" x1="36.31" y1="54.4" x2="1267.32" y2="54.4"/><line class="cls-1" x1="1270.32" y1="54.4" x2="1270.32" y2="54.4"/><line class="cls-1" x1="30.32" y1="100.4" x2="30.32" y2="100.4"/><line class="cls-2" x1="36.31" y1="100.4" x2="1267.32" y2="100.4"/><line class="cls-1" x1="1270.32" y1="100.4" x2="1270.32" y2="100.4"/><line class="cls-1" x1="30.32" y1="146.4" x2="30.32" y2="146.4"/><line class="cls-2" x1="36.31" y1="146.4" x2="1267.32" y2="146.4"/><line class="cls-1" x1="1270.32" y1="146.4" x2="1270.32" y2="146.4"/><line class="cls-1" x1="30.32" y1="169.4" x2="30.32" y2="169.4"/><line class="cls-2" x1="36.31" y1="169.4" x2="1267.32" y2="169.4"/><line class="cls-1" x1="1270.32" y1="169.4" x2="1270.32" y2="169.4"/><line class="cls-1" x1="30.32" y1="192.4" x2="30.32" y2="192.4"/><line class="cls-2" x1="36.31" y1="192.4" x2="1267.32" y2="192.4"/><line class="cls-1" x1="1270.32" y1="192.4" x2="1270.32" y2="192.4"/><line class="cls-1" x1="30.32" y1="31.4" x2="30.32" y2="31.4"/><line class="cls-2" x1="36.31" y1="31.4" x2="1267.32" y2="31.4"/><line class="cls-1" x1="1270.32" y1="31.4" x2="1270.32" y2="31.4"/><line class="cls-1" x1="30.32" y1="77.4" x2="30.32" y2="77.4"/><line class="cls-2" x1="36.31" y1="77.4" x2="1267.32" y2="77.4"/><line class="cls-1" x1="1270.32" y1="77.4" x2="1270.32" y2="77.4"/><line class="cls-1" x1="30.32" y1="123.4" x2="30.32" y2="123.4"/><line class="cls-2" x1="36.31" y1="123.4" x2="1267.32" y2="123.4"/><line class="cls-1" x1="1270.32" y1="123.4" x2="1270.32" y2="123.4"/><path class="cls-3" d="M163.13,146.4h0a7.86,7.86,0,0,1,7.86,7.86V192.4a0,0,0,0,1,0,0H155.27a0,0,0,0,1,0,0V154.26a7.86,7.86,0,0,1,7.86-7.86Z"/><path class="cls-3" d="M238.08,100.4h0a7.86,7.86,0,0,1,7.86,7.86V192.4a0,0,0,0,1,0,0H230.22a0,0,0,0,1,0,0V108.26A7.86,7.86,0,0,1,238.08,100.4Z"/><path class="cls-3" d="M313,146.4h0a7.86,7.86,0,0,1,7.86,7.86V192.4a0,0,0,0,1,0,0H305.18a0,0,0,0,1,0,0V154.26A7.86,7.86,0,0,1,313,146.4Z"/><path class="cls-3" d="M388,100.4h0a7.86,7.86,0,0,1,7.86,7.86V192.4a0,0,0,0,1,0,0H380.13a0,0,0,0,1,0,0V108.26A7.86,7.86,0,0,1,388,100.4Z"/><path class="cls-3" d="M425.46,100.4h0a7.86,7.86,0,0,1,7.86,7.86V192.4a0,0,0,0,1,0,0H417.6a0,0,0,0,1,0,0V108.26A7.86,7.86,0,0,1,425.46,100.4Z"/><path class="cls-3" d="M500.42,146.4h0a7.86,7.86,0,0,1,7.86,7.86V192.4a0,0,0,0,1,0,0H492.56a0,0,0,0,1,0,0V154.26A7.86,7.86,0,0,1,500.42,146.4Z"/><path class="cls-3" d="M537.89,146.4h0a7.86,7.86,0,0,1,7.86,7.86V192.4a0,0,0,0,1,0,0H530a0,0,0,0,1,0,0V154.26A7.86,7.86,0,0,1,537.89,146.4Z"/><path class="cls-3" d="M612.84,54.4h0a7.86,7.86,0,0,1,7.86,7.86V192.4a0,0,0,0,1,0,0H605a0,0,0,0,1,0,0V62.26a7.86,7.86,0,0,1,7.86-7.86Z"/><path class="cls-3" d="M725.27,146.4h0a7.86,7.86,0,0,1,7.86,7.86V192.4a0,0,0,0,1,0,0H717.41a0,0,0,0,1,0,0V154.26a7.86,7.86,0,0,1,7.86-7.86Z"/><path class="cls-3" d="M800.22,146.4h0a7.86,7.86,0,0,1,7.86,7.86V192.4a0,0,0,0,1,0,0H792.37a0,0,0,0,1,0,0V154.26A7.86,7.86,0,0,1,800.22,146.4Z"/><path class="cls-3" d="M837.7,146.4h0a7.86,7.86,0,0,1,7.86,7.86V192.4a0,0,0,0,1,0,0H829.84a0,0,0,0,1,0,0V154.26A7.86,7.86,0,0,1,837.7,146.4Z"/><path class="cls-3" d="M912.65,146.4h0a7.86,7.86,0,0,1,7.86,7.86V192.4a0,0,0,0,1,0,0H904.79a0,0,0,0,1,0,0V154.26A7.86,7.86,0,0,1,912.65,146.4Z"/><path class="cls-3" d="M987.6,146.4h0a7.86,7.86,0,0,1,7.86,7.86V192.4a0,0,0,0,1,0,0H979.75a0,0,0,0,1,0,0V154.26A7.86,7.86,0,0,1,987.6,146.4Z"/><path class="cls-3" d="M1100,146.4h0a7.86,7.86,0,0,1,7.86,7.86V192.4a0,0,0,0,1,0,0h-15.72a0,0,0,0,1,0,0V154.26A7.86,7.86,0,0,1,1100,146.4Z"/><path class="cls-3" d="M1137.51,146.4h0a7.86,7.86,0,0,1,7.86,7.86V192.4a0,0,0,0,1,0,0h-15.72a0,0,0,0,1,0,0V154.26A7.86,7.86,0,0,1,1137.51,146.4Z"/><path class="cls-3" d="M1212.46,100.4h0a7.86,7.86,0,0,1,7.86,7.86V192.4a0,0,0,0,1,0,0H1204.6a0,0,0,0,1,0,0V108.26a7.86,7.86,0,0,1,7.86-7.86Z"/><path class="cls-3" d="M125.65,146.4h0a7.86,7.86,0,0,1,7.86,7.86V192.4a0,0,0,0,1,0,0H117.8a0,0,0,0,1,0,0V154.26A7.86,7.86,0,0,1,125.65,146.4Z"/><text class="cls-4" transform="translate(75.45 215.4)">1<tspan class="cls-5" x="4.9" y="0">9</tspan><tspan class="cls-6" x="10.45" y="0">-</tspan><tspan class="cls-7" x="14.65" y="0">0</tspan><tspan class="cls-8" x="20.14" y="0">5</tspan></text><text class="cls-9" transform="translate(0 192.4)">0</text><text class="cls-9" transform="translate(0 169.4)">1</text><text class="cls-9" transform="translate(0 146.4)">2</text><text class="cls-9" transform="translate(0 123.4)">3</text><text class="cls-9" transform="translate(0 100.4)">4</text><text class="cls-9" transform="translate(0 77.4)">5</text><text class="cls-9" transform="translate(0 54.4)">6</text><text class="cls-9" transform="translate(0 31.4)">7</text><text class="cls-9" transform="translate(0 8.4)">8</text><text class="cls-10" transform="translate(112.51 215.4)">2<tspan class="cls-11" x="5.51" y="0">0-</tspan><tspan class="cls-7" x="15.48" y="0">0</tspan><tspan class="cls-8" x="20.97" y="0">5</tspan></text><text class="cls-12" transform="translate(150.43 215.4)">2<tspan class="cls-13" x="5.3" y="0">1</tspan><tspan class="cls-14" x="10.39" y="0">-</tspan><tspan class="cls-7" x="14.58" y="0">0</tspan><tspan class="cls-15" x="20.07" y="0">5</tspan></text><text class="cls-16" transform="translate(187.66 215.4)">2<tspan class="cls-17" x="5.49" y="0">2</tspan><tspan class="cls-6" x="10.88" y="0">-</tspan><tspan class="cls-18" x="15.07" y="0">0</tspan><tspan class="cls-15" x="20.56" y="0">5</tspan></text><text class="cls-16" transform="translate(225 215.4)">2<tspan class="cls-19" x="5.49" y="0">3</tspan><tspan class="cls-6" x="11.16" y="0">-</tspan><tspan class="cls-7" x="15.36" y="0">0</tspan><tspan class="cls-8" x="20.85" y="0">5</tspan></text><text class="cls-20" transform="translate(262.6 215.4)">2<tspan class="cls-21" x="5.28" y="0">4</tspan><tspan class="cls-6" x="10.92" y="0">-</tspan><tspan class="cls-18" x="15.11" y="0">0</tspan><tspan class="cls-15" x="20.61" y="0">5</tspan></text><text class="cls-22" transform="translate(299.96 215.4)">2<tspan class="cls-23" x="5.4" y="0">5</tspan><tspan class="cls-6" x="11.13" y="0">-</tspan><tspan class="cls-18" x="15.33" y="0">0</tspan><tspan class="cls-15" x="20.82" y="0">5</tspan></text><text class="cls-24" transform="translate(337.46 215.4)">2<tspan class="cls-25" x="5.37" y="0">6</tspan><tspan class="cls-6" x="11.09" y="0">-</tspan><tspan class="cls-18" x="15.28" y="0">0</tspan><tspan class="cls-15" x="20.78" y="0">5</tspan></text><text class="cls-26" transform="translate(375.19 215.4)">2<tspan class="cls-27" x="5.43" y="0">7</tspan><tspan class="cls-6" x="10.59" y="0">-</tspan><tspan class="cls-18" x="14.78" y="0">0</tspan><tspan class="cls-15" x="20.27" y="0">5</tspan></text><text class="cls-28" transform="translate(412.36 215.4)">2<tspan class="cls-29" x="5.48" y="0">8</tspan><tspan class="cls-14" x="11.2" y="0">-</tspan><tspan class="cls-7" x="15.39" y="0">0</tspan><tspan class="cls-15" x="20.88" y="0">5</tspan></text><text class="cls-9" transform="translate(449.87 215.4)">2<tspan class="cls-5" x="5.57" y="0">9</tspan><tspan class="cls-6" x="11.13" y="0">-</tspan><tspan class="cls-18" x="15.32" y="0">0</tspan><tspan x="20.81" y="0">5</tspan></text><text class="cls-30" transform="translate(487.24 215.4)">3<tspan class="cls-11" x="5.56" y="0">0-</tspan><tspan class="cls-18" x="15.53" y="0">0</tspan><tspan class="cls-15" x="21.03" y="0">5</tspan></text><text class="cls-31" transform="translate(525.2 215.4)">3<tspan class="cls-32" x="5.28" y="0">1</tspan><tspan class="cls-6" x="10.37" y="0">-</tspan><tspan class="cls-7" x="14.56" y="0">0</tspan><tspan class="cls-8" x="20.05" y="0">5</tspan></text><text class="cls-33" transform="translate(562.61 215.4)">0<tspan class="cls-32" x="5.32" y="0">1</tspan><tspan class="cls-6" x="10.4" y="0">-</tspan><tspan class="cls-34" x="14.59" y="0">0</tspan><tspan class="cls-8" x="20.18" y="0">6</tspan></text><text class="cls-35" transform="translate(599.85 215.4)">0<tspan class="cls-17" x="5.5" y="0">2</tspan><tspan class="cls-6" x="10.89" y="0">-</tspan><tspan class="cls-34" x="15.08" y="0">0</tspan><tspan class="cls-15" x="20.67" y="0">6</tspan></text><text class="cls-36" transform="translate(637.16 215.4)">0<tspan class="cls-19" x="5.54" y="0">3</tspan><tspan class="cls-6" x="11.22" y="0">-</tspan><tspan class="cls-34" x="15.41" y="0">0</tspan><tspan class="cls-15" x="21" y="0">6</tspan></text><text class="cls-37" transform="translate(674.61 215.4)">04<tspan class="cls-6" x="11.27" y="0">-</tspan><tspan class="cls-34" x="15.47" y="0">0</tspan><tspan class="cls-8" x="21.06" y="0">6</tspan></text><text class="cls-38" transform="translate(712.1 215.4)">0<tspan class="cls-23" x="5.49" y="0">5</tspan><tspan class="cls-6" x="11.23" y="0">-</tspan><tspan class="cls-34" x="15.42" y="0">0</tspan><tspan class="cls-8" x="21.01" y="0">6</tspan></text><text class="cls-39" transform="translate(749.54 215.4)">0<tspan class="cls-40" x="5.59" y="0">6</tspan><tspan class="cls-6" x="11.31" y="0">-</tspan><tspan x="15.51" y="0">0</tspan><tspan class="cls-8" x="21.09" y="0">6</tspan></text><text class="cls-41" transform="translate(787.37 215.4)">0<tspan class="cls-27" x="5.45" y="0">7</tspan><tspan class="cls-6" x="10.6" y="0">-</tspan><tspan class="cls-34" x="14.8" y="0">0</tspan><tspan class="cls-8" x="20.38" y="0">6</tspan></text><text class="cls-42" transform="translate(824.49 215.4)">0<tspan class="cls-29" x="5.6" y="0">8</tspan><tspan class="cls-6" x="11.31" y="0">-</tspan><tspan class="cls-34" x="15.51" y="0">0</tspan><tspan class="cls-8" x="21.09" y="0">6</tspan></text><text class="cls-43" transform="translate(862.05 215.4)">0<tspan class="cls-5" x="5.59" y="0">9</tspan><tspan class="cls-6" x="11.15" y="0">-</tspan><tspan class="cls-34" x="15.34" y="0">0</tspan><tspan class="cls-8" x="20.93" y="0">6</tspan></text><text class="cls-44" transform="translate(899.72 215.4)">1<tspan class="cls-11" x="4.97" y="0">0-</tspan><tspan class="cls-34" x="14.94" y="0">0</tspan><tspan class="cls-8" x="20.53" y="0">6</tspan></text><text class="cls-45" transform="translate(937.71 215.4)">1<tspan class="cls-13" x="4.64" y="0">1</tspan><tspan class="cls-14" x="9.72" y="0">-</tspan><tspan class="cls-34" x="13.91" y="0">0</tspan><tspan class="cls-15" x="19.5" y="0">6</tspan></text><text class="cls-46" transform="translate(974.95 215.4)">1<tspan class="cls-17" x="4.82" y="0">2</tspan><tspan class="cls-6" x="10.21" y="0">-</tspan><tspan class="cls-34" x="14.4" y="0">0</tspan><tspan class="cls-8" x="19.99" y="0">6</tspan></text><text class="cls-47" transform="translate(1012.25 215.4)">1<tspan class="cls-48" x="4.87" y="0">3</tspan><tspan class="cls-6" x="10.55" y="0">-</tspan><tspan class="cls-49" x="14.74" y="0">0</tspan><tspan class="cls-15" x="20.33" y="0">6</tspan></text><text class="cls-50" transform="translate(1049.71 215.4)">1<tspan class="cls-21" x="4.95" y="0">4</tspan><tspan class="cls-6" x="10.59" y="0">-</tspan><tspan class="cls-34" x="14.78" y="0">0</tspan><tspan class="cls-8" x="20.37" y="0">6</tspan></text><text class="cls-51" transform="translate(1087.19 215.4)">1<tspan class="cls-23" x="4.85" y="0">5</tspan><tspan class="cls-6" x="10.59" y="0">-</tspan><tspan class="cls-34" x="14.78" y="0">0</tspan><tspan class="cls-8" x="20.37" y="0">6</tspan></text><text class="cls-52" transform="translate(1124.65 215.4)">1<tspan class="cls-40" x="4.89" y="0">6</tspan><tspan class="cls-6" x="10.62" y="0">-</tspan><tspan class="cls-34" x="14.81" y="0">0</tspan><tspan class="cls-15" x="20.4" y="0">6</tspan></text><text class="cls-53" transform="translate(1162.47 215.4)">1<tspan class="cls-27" x="4.77" y="0">7</tspan><tspan class="cls-6" x="9.92" y="0">-</tspan><tspan class="cls-34" x="14.11" y="0">0</tspan><tspan class="cls-8" x="19.7" y="0">6</tspan></text><text class="cls-54" transform="translate(1199.58 215.4)">1<tspan class="cls-29" x="4.94" y="0">8</tspan><tspan class="cls-6" x="10.65" y="0">-</tspan><tspan class="cls-34" x="14.84" y="0">0</tspan><tspan class="cls-8" x="20.43" y="0">6</tspan></text></g></g></svg>