<svg xmlns="http://www.w3.org/2000/svg" viewBox="0 0 400 400"><defs><style>.cls-1{fill:#fff;}.cls-2{fill:#002e6d;}.cls-3{fill:#ffe800;}</style></defs><title>meli</title><g id="Layer_2" data-name="Layer 2"><rect class="cls-1" width="400" height="400"/></g><g id="Layer_1" data-name="Layer 1"><path class="cls-2" d="M140.49,198.31c0-24.66-30.64-44.76-68.44-44.76S3.62,173.65,3.62,198.31c0,.63,0,2.39,0,2.62,0,26.16,26.78,47.35,68.43,47.35,41.91,0,68.45-21.18,68.45-47.35Z"/><path class="cls-3" d="M137.86,198.29c0,23.24-29.46,42.09-65.8,42.09s-65.8-18.85-65.8-42.09,29.46-42.1,65.8-42.1S137.86,175,137.86,198.29Z"/><path class="cls-1" d="M50.21,185c0,.07-.69.75-.26,1.3,1,1.32,4.24,2.08,7.49,1.36,1.93-.44,4.4-2.41,6.8-4.31,2.6-2.06,5.18-4.13,7.77-4.95a8.83,8.83,0,0,1,5.66-.15,17.42,17.42,0,0,1,5.17,3c4.5,3.39,22.61,19.19,25.73,21.92a155.91,155.91,0,0,1,28.93-9.31c-1.32-8.11-6.25-15.53-13.74-21.61-10.42,4.38-23.17,6.67-35.64.58-.06,0-6.81-3.22-13.46-3.06-9.89.23-14.17,4.51-18.71,9Z"/><path class="cls-1" d="M107.84,204.9c-.21-.19-21.29-18.63-26.07-22.22-2.76-2.07-4.3-2.6-5.91-2.81a8.33,8.33,0,0,0-2.81.27c-2.22.61-5.13,2.55-7.7,4.59s-5.19,4.13-7.53,4.66a12.13,12.13,0,0,1-8.29-1.25,3.67,3.67,0,0,1-1.38-1.51,2.56,2.56,0,0,1,.71-2.75l5.82-6.29c.67-.68,1.35-1.35,2-2a38.41,38.41,0,0,0-5.3,1.2,23.24,23.24,0,0,1-6.18,1.15,58,58,0,0,1-6.32-1,94.41,94.41,0,0,1-16.78-6.06C13.88,177,8.35,184.72,6.76,193.2c1.18.31,3.1.88,3.9,1.06,18.71,4.16,24.54,8.45,25.6,9.34a6.18,6.18,0,0,1,9.7.57,7.14,7.14,0,0,1,4.47-1.57,8.31,8.31,0,0,1,2.67.47,6.19,6.19,0,0,1,3.77,3.4,6.25,6.25,0,0,1,2.6-.55,7.76,7.76,0,0,1,3.11.69c3.45,1.48,4,4.87,3.68,7.42a6,6,0,0,1,.74,0,7.4,7.4,0,0,1,6.53,10.92c1.11.63,4,2.05,6.44,1.73,2-.25,2.75-.93,3-1.31s.38-.57.19-.79l-5.27-5.87s-.87-.82-.59-1.14.84.14,1.22.46c2.69,2.24,6,5.63,6,5.63s.27.47,1.48.68a5.47,5.47,0,0,0,4.17-1,5.85,5.85,0,0,0,.92-.94l-.06.05a2.81,2.81,0,0,0-.15-3.48L84.71,212s-.88-.81-.58-1.14.83.14,1.22.46c2,1.64,4.71,4.4,7.35,7a5,5,0,0,0,5.91-.2,4.25,4.25,0,0,0,2.19-3.87,4.41,4.41,0,0,0-1.3-2.57l-8.42-8.46s-.89-.76-.57-1.15.83.15,1.21.46c2.68,2.25,9.94,8.9,9.94,8.9a5.09,5.09,0,0,0,5.71-.11,3.82,3.82,0,0,0,1.88-3A4.45,4.45,0,0,0,107.84,204.9Z"/><path class="cls-1" d="M67,215.63c-1.31,0-2.73.76-2.92.65s.08-.59.2-.9,1.85-5.47-2.34-7.27a5,5,0,0,0-5.85.87c-.17.19-.25.17-.27-.06a4.64,4.64,0,0,0-3.25-4.3,6.35,6.35,0,0,0-7.15,2.55,4.58,4.58,0,1,0-4.53,5.17,4.52,4.52,0,0,0,3.17-1.28s0,.07,0,.16a6,6,0,0,0,3.77,6.94,4.53,4.53,0,0,0,4.43-.68c.36-.26.42-.15.37.19-.16,1.06,0,3.33,3.23,4.62a4.09,4.09,0,0,0,4.8-.89c.4-.37.52-.31.54.27a5.77,5.77,0,1,0,5.77-6Z"/><path class="cls-2" d="M108.65,202.69C102.16,197,87.16,184,83.09,180.93a17.87,17.87,0,0,0-5.29-3.08,8.75,8.75,0,0,0-2.6-.4,10.92,10.92,0,0,0-3.31.55c-2.62.83-5.24,2.91-7.77,4.92L64,183c-2.36,1.87-4.79,3.81-6.64,4.22a11.24,11.24,0,0,1-2.46.27c-2.06,0-3.92-.59-4.61-1.48-.12-.15,0-.39.23-.73l0,0,5.71-6.16c4.48-4.47,8.7-8.69,18.43-8.92h.48a34.52,34.52,0,0,1,12.79,3,39.48,39.48,0,0,0,17.42,4.18,45.32,45.32,0,0,0,19.13-4.58c-.74-.63-1.52-1.23-2.31-1.83a42,42,0,0,1-16.8,3.81,37,37,0,0,1-16.31-3.92,36.87,36.87,0,0,0-13.91-3.29h-.55c-8.17.19-12.77,3.09-15.87,5.63a31.42,31.42,0,0,0-7.91,1.45,21.72,21.72,0,0,1-5.58,1.07c-.72,0-2-.07-2.12-.07-2-.07-12.06-2.53-20.06-5.56-.82.58-1.6,1.17-2.37,1.78,8.36,3.43,18.54,6.08,21.75,6.29.89.06,1.84.16,2.79.16a23.91,23.91,0,0,0,6.3-1.17c1.21-.34,2.55-.71,4-1l-1.12,1.12-5.81,6.28a2.92,2.92,0,0,0-.79,3.2,4.11,4.11,0,0,0,1.53,1.7,12,12,0,0,0,6.15,1.56,11.25,11.25,0,0,0,2.46-.26c2.43-.54,5-2.58,7.69-4.73,2.15-1.71,5.21-3.88,7.56-4.52a8.43,8.43,0,0,1,2.1-.29,4.56,4.56,0,0,1,.54,0c1.55.19,3,.72,5.72,2.72,4.76,3.58,25.84,22,26.05,22.2a4,4,0,0,1,1.26,3.1,3.38,3.38,0,0,1-1.68,2.69,5.14,5.14,0,0,1-2.77.86,4.58,4.58,0,0,1-2.44-.7c-.08-.07-7.3-6.69-10-8.91a2.22,2.22,0,0,0-1.25-.67.68.68,0,0,0-.55.26c-.42.52,0,1.23.6,1.7L99.23,212a4,4,0,0,1,1.16,2.28,3.84,3.84,0,0,1-2,3.5,5.46,5.46,0,0,1-3,1,4.33,4.33,0,0,1-2.4-.73l-1.22-1.19c-2.21-2.18-4.49-4.43-6.16-5.83a2.23,2.23,0,0,0-1.26-.65.72.72,0,0,0-.53.23c-.19.21-.32.59.15,1.22a4.83,4.83,0,0,0,.43.48l6.15,6.91a2.36,2.36,0,0,1,.14,3l-.22.28a5.86,5.86,0,0,1-.57.55,4.92,4.92,0,0,1-3,1,4.35,4.35,0,0,1-.83-.07,2.11,2.11,0,0,1-1.21-.51l-.08-.08c-.33-.35-3.44-3.51-6-5.66a2.15,2.15,0,0,0-1.2-.64.75.75,0,0,0-.56.25c-.5.56.26,1.39.58,1.7l5.25,5.78a.94.94,0,0,1-.2.36c-.18.26-.82.9-2.73,1.14-.22,0-.46,0-.69,0a12,12,0,0,1-5.14-1.53A7.83,7.83,0,0,0,67,213.57h-.29c.15-2-.13-5.71-4-7.35a8.16,8.16,0,0,0-3.27-.72,6.67,6.67,0,0,0-2.4.43,6.66,6.66,0,0,0-3.84-3.26,8.8,8.8,0,0,0-2.81-.49,7.46,7.46,0,0,0-4.38,1.4,6.58,6.58,0,0,0-9.82-.55c-1.64-1.25-8.12-5.37-25.47-9.31-.84-.19-2.77-.74-3.95-1.09a27.25,27.25,0,0,0-.45,2.85l3.83.91c17.73,3.93,23.58,8,24.58,8.8a6.8,6.8,0,0,0-.52,2.55,6.66,6.66,0,0,0,6.64,6.65,7,7,0,0,0,1.22-.11,7.73,7.73,0,0,0,5,5.78,6.48,6.48,0,0,0,2.37.46,6,6,0,0,0,1.51-.19,7,7,0,0,0,4.12,3.86,7.09,7.09,0,0,0,2.61.54,5.83,5.83,0,0,0,2-.36,7.81,7.81,0,0,0,12.85,2.48,14.83,14.83,0,0,0,6.63,2,8,8,0,0,0,1-.07c2.68-.34,3.93-1.38,4.5-2.2a3.4,3.4,0,0,0,.28-.45,7.6,7.6,0,0,0,2.12.33,7.13,7.13,0,0,0,4.29-1.53A5.89,5.89,0,0,0,94,221.25a.13.13,0,0,0,0-.06,6.9,6.9,0,0,0,1.44.15,8,8,0,0,0,4.4-1.4,6.37,6.37,0,0,0,3.16-5.66,7.08,7.08,0,0,0,1.45.16,7.62,7.62,0,0,0,4.12-1.27,6,6,0,0,0,2.87-4.67,6.29,6.29,0,0,0-.91-3.77,170.92,170.92,0,0,1,27.34-8.56,27.08,27.08,0,0,0-.38-2.83A156.53,156.53,0,0,0,108.65,202.69ZM67,226.77a5.32,5.32,0,0,1-5.35-5.12c0-.24,0-.9-.59-.9a1,1,0,0,0-.65.35,3.74,3.74,0,0,1-2.63,1.18,4.57,4.57,0,0,1-1.73-.37c-3.06-1.24-3.1-3.34-3-4.18a.79.79,0,0,0-.11-.64l-.19-.17h-.19a.86.86,0,0,0-.53.22,4.48,4.48,0,0,1-2.6.92,4.13,4.13,0,0,1-1.44-.28,5.61,5.61,0,0,1-3.51-6.51.54.54,0,0,0-.18-.53l-.28-.23-.27.25a4.11,4.11,0,0,1-2.88,1.17A4.18,4.18,0,1,1,45,207.22l.14,1.13.62-.95A5.82,5.82,0,0,1,52.45,205a4.21,4.21,0,0,1,3,3.93c.05.55.43.57.51.57a.67.67,0,0,0,.48-.25,4.21,4.21,0,0,1,3.08-1.3,6.14,6.14,0,0,1,2.3.52c3.93,1.69,2.15,6.69,2.13,6.74-.34.83-.36,1.19,0,1.4l.16.08h.11a2.83,2.83,0,0,0,.76-.2A6.7,6.7,0,0,1,67,216h0a5.37,5.37,0,1,1,0,10.73Z"/><path class="cls-2" d="M168,173.63v20.13h-8V175.24c0-9,4.52-13.46,13.52-13.46,4.05,0,7.14.89,9.41,2.68,2.26-1.73,5.36-2.56,9.41-2.56,9,0,13.46,4.46,13.4,13.46v18.52h-4.11c-2.62-.18-3.93-1.43-3.93-3.93v-16.2c-.18-3.28-2-4.89-5.48-4.89s-5.3,1.61-5.36,4.89v20h-8V173.63c-.18-3.28-2-4.88-5.48-4.88S168.09,170.35,168,173.63Z"/><path class="cls-2" d="M244.57,177.62c.24-10.18,5.27-15.84,15.81-15.84h2.39V170l-3.68.07c-4.41,0-6.48,2.85-6.48,7.43v16.38h-8Z"/><path class="cls-2" d="M307.12,171.66h-7.37c.28-6.09,3.34-10.14,12.34-10.14,8.7,0,13.1,2.85,13.28,8.69v10.72c0,8.7-5.24,12.57-13.76,13.17-7.56.59-12.8-2.92-12.8-9.89.18-7.57,5.66-9.59,13.64-10.36,3.39-.42,5.12-1.44,5.12-3.16-.18-1.79-1.85-2.64-5.12-2.68C308.74,168,307.54,170.17,307.12,171.66Zm10.57,8.9V178a34.77,34.77,0,0,1-6.32,1.56c-3.15.6-4.76,2.09-4.76,4.41.18,2.5,1.49,3.69,4,3.69C315,187.65,317.69,185,317.69,180.56Z"/><path class="cls-2" d="M359.35,151.72v28.4c0,9.47-5,14.18-14.77,14.12s-14.66-5.48-14.66-16c0-10.72,4.17-16.2,12.57-16.49a9.9,9.9,0,0,1,9,4.88v-10l0-.89C354.12,151.82,359.35,151.72,359.35,151.72Zm-21.27,26.2c-.05,6.37,2.09,9.59,6.62,9.59s6.78-3.22,6.78-9.59c-.17-6.08-2.38-9.06-6.67-9.06S338.32,171.84,338.08,177.92Z"/><path class="cls-2" d="M218.29,198.68h2.07v41.73h-7.92V203.78C212.44,202.59,214.9,198.68,218.29,198.68Z"/><path class="cls-2" d="M261.44,208a9.81,9.81,0,0,0-8.93,4.88V198.68h-.9a7.78,7.78,0,0,0-7,3.88v23.73c0,9.47,4.94,14.18,14.77,14.12s14.65-5.48,14.65-16C274,213.72,269.84,208.24,261.44,208Zm-2.32,25.72c-4.53,0-6.67-3.21-6.61-9.58.24-6.08,2.44-9.06,6.73-9.06s6.49,3,6.67,9.06C265.91,230.46,263.65,233.67,259.12,233.67Z"/><path class="cls-2" d="M219.85,185.84a8.62,8.62,0,0,0,9.86.57,5.3,5.3,0,0,0,2.26-2.7h7.42q-1.78,5.52-5.46,7.89A16.06,16.06,0,0,1,225,194a17.58,17.58,0,0,1-6.53-1.16,13.65,13.65,0,0,1-4.93-3.29,14.8,14.8,0,0,1-3.12-5.11,18.76,18.76,0,0,1-1.1-6.53,18,18,0,0,1,1.13-6.42,14.9,14.9,0,0,1,8.17-8.55,15.89,15.89,0,0,1,6.38-1.24,14.6,14.6,0,0,1,6.83,1.51,13.69,13.69,0,0,1,4.78,4.07,16.55,16.55,0,0,1,2.7,5.82,21.75,21.75,0,0,1,.59,6.83H217.78C217.89,182.64,218.59,184.62,219.85,185.84Zm9.53-16.15a5.93,5.93,0,0,0-4.6-1.66,7.4,7.4,0,0,0-3.35.68,6.35,6.35,0,0,0-2.14,1.7,6.28,6.28,0,0,0-1.13,2.13,9.66,9.66,0,0,0-.38,2h13.71A9.69,9.69,0,0,0,229.38,169.69Z"/><path class="cls-2" d="M280.6,167.93a6,6,0,0,0-3.42.93,7.47,7.47,0,0,0-2.24,2.4,10.37,10.37,0,0,0-1.23,3.24,17.57,17.57,0,0,0-.36,3.51,16.85,16.85,0,0,0,.36,3.42,10.58,10.58,0,0,0,1.17,3.15,6.6,6.6,0,0,0,2.19,2.3,6,6,0,0,0,3.35.9,6.28,6.28,0,0,0,4.71-1.7,8.09,8.09,0,0,0,2.07-4.59h8.22q-.84,6.18-4.8,9.41a15.49,15.49,0,0,1-10.14,3.24A16.93,16.93,0,0,1,274.1,193a14.17,14.17,0,0,1-5-3.27,14.85,14.85,0,0,1-3.18-5,17.37,17.37,0,0,1-1.14-6.39,20.67,20.67,0,0,1,1.05-6.69,15.05,15.05,0,0,1,3.09-5.34,14.14,14.14,0,0,1,5-3.51,16.84,16.84,0,0,1,6.71-1.26,19.45,19.45,0,0,1,5.31.72,14.17,14.17,0,0,1,4.56,2.19,11.32,11.32,0,0,1,4.71,8.85H286.9Q286.06,167.93,280.6,167.93Z"/><path class="cls-2" d="M365.44,171.14a14.19,14.19,0,0,1,8.28-8.46,17.72,17.72,0,0,1,6.6-1.17,18,18,0,0,1,6.63,1.17,14.15,14.15,0,0,1,8.3,8.46,19,19,0,0,1,1.14,6.75,18.8,18.8,0,0,1-1.14,6.72,14.54,14.54,0,0,1-3.24,5.12A14.08,14.08,0,0,1,387,193a18.37,18.37,0,0,1-6.63,1.14,18.13,18.13,0,0,1-6.6-1.14,14.17,14.17,0,0,1-5-3.27,14.54,14.54,0,0,1-3.24-5.12,18.8,18.8,0,0,1-1.14-6.72A19,19,0,0,1,365.44,171.14Zm7.74,10.38a9.67,9.67,0,0,0,1.23,3.18,6.44,6.44,0,0,0,2.31,2.24,7.05,7.05,0,0,0,3.6.84,7.22,7.22,0,0,0,3.63-.84,6.37,6.37,0,0,0,2.34-2.24,9.67,9.67,0,0,0,1.23-3.18,18.17,18.17,0,0,0,.36-3.63,18.62,18.62,0,0,0-.36-3.66,9.34,9.34,0,0,0-1.23-3.18A6.82,6.82,0,0,0,384,168.8a7,7,0,0,0-3.63-.87,6.55,6.55,0,0,0-5.91,3.12,9.34,9.34,0,0,0-1.23,3.18,18.62,18.62,0,0,0-.36,3.66A18.17,18.17,0,0,0,373.18,181.52Z"/><path class="cls-2" d="M278.67,224.06c.24-10.19,5.27-15.85,15.81-15.85h2.39v8.22l-3.68.08c-4.41,0-6.48,2.84-6.48,7.43v16.38h-8Z"/><path class="cls-2" d="M309.41,232.28a8.63,8.63,0,0,0,9.85.56,5.3,5.3,0,0,0,2.26-2.7h7.42q-1.79,5.52-5.46,7.9a16.12,16.12,0,0,1-8.91,2.37,17.58,17.58,0,0,1-6.53-1.15,13.54,13.54,0,0,1-4.93-3.3,14.79,14.79,0,0,1-3.11-5.1,18.55,18.55,0,0,1-1.1-6.54,18,18,0,0,1,1.12-6.41,14.83,14.83,0,0,1,8.17-8.55,15.93,15.93,0,0,1,6.38-1.25,14.58,14.58,0,0,1,6.83,1.52,13.66,13.66,0,0,1,4.78,4.06,16.71,16.71,0,0,1,2.7,5.82,21.78,21.78,0,0,1,.6,6.83H307.33Q307.51,230.44,309.41,232.28Zm9.53-16.15a5.93,5.93,0,0,0-4.61-1.66,7.27,7.27,0,0,0-3.35.68,6.55,6.55,0,0,0-2.14,1.69,6.42,6.42,0,0,0-1.13,2.14,10.09,10.09,0,0,0-.38,2H321A9.69,9.69,0,0,0,318.94,216.13Z"/><rect class="cls-2" x="228.86" y="198.68" width="7.92" height="7.22"/><rect class="cls-2" x="228.86" y="209.52" width="7.92" height="30.88"/></g></svg>