<svg xmlns="http://www.w3.org/2000/svg" viewBox="0 0 44 44"><defs><style>.cls-1{fill:#94c733;stroke:#fff;stroke-miterlimit:10;stroke-width:2px;}.cls-2{fill:#fff;}</style></defs><title>delivered-active</title><g id="Layer_2" data-name="Layer 2"><g id="Gráfica"><circle class="cls-1" cx="22" cy="22" r="21"/><path class="cls-2" d="M26.42,20.49a2.95,2.95,0,1,0-3,3A2.95,2.95,0,0,0,26.42,20.49Zm-4.71,0a1.77,1.77,0,1,1,1.76,1.77A1.77,1.77,0,0,1,21.71,20.49Z"/><path class="cls-2" d="M10.18,17a.59.59,0,1,0,.59.59A.59.59,0,0,0,10.18,17Z"/><path class="cls-2" d="M8.7,19.9a.6.6,0,0,0-.59.59.59.59,0,0,0,.59.59.58.58,0,0,0,.59-.59A.59.59,0,0,0,8.7,19.9Z"/><path class="cls-2" d="M24.64,30.79c2.26-2.14,6.79-6.5,6.79-10.3A7.95,7.95,0,0,0,16.36,17H13.14a.59.59,0,1,0,0,1.17h2.73a8,8,0,0,0-.32,1.77h-3.9a.59.59,0,0,0-.59.59.58.58,0,0,0,.59.59h3.9A6.83,6.83,0,0,0,16,22.85H11.65a.59.59,0,0,0,0,1.18h4.93a30.74,30.74,0,0,0,5.72,6.76c-1.93.11-3.35.47-3.35.91s2,.93,4.52.93S28,32.21,28,31.7,26.58,30.9,24.64,30.79Zm-7.95-10.3a6.78,6.78,0,0,1,13.56,0c0,3.34-4.55,7.68-6.5,9.53l-.08.07a.28.28,0,0,1-.4,0L23.2,30C21.25,28.17,16.69,23.83,16.69,20.49Z"/></g></g></svg>