<svg xmlns="http://www.w3.org/2000/svg" viewBox="0 0 44 44"><defs><style>.cls-1{fill:#94c733;stroke:#fff;stroke-miterlimit:10;stroke-width:2px;}.cls-2{fill:#fff;}</style></defs><title>on-the-way-active</title><g id="Layer_2" data-name="Layer 2"><g id="Gráfica"><circle class="cls-1" cx="22" cy="22" r="21"/><circle class="cls-2" cx="11.68" cy="13.16" r="0.59"/><circle class="cls-2" cx="8.74" cy="17.58" r="0.59"/><path class="cls-2" d="M33.79,21.41h-1l-1-3a2.07,2.07,0,0,0-2-1.41H27V13.16a.58.58,0,0,0-.59-.59H14.63a.59.59,0,0,0-.59.59.6.6,0,0,0,.59.59h11.2v15H18.39a2.36,2.36,0,0,0-4.57,0H11.68a.59.59,0,0,0-.59.59.6.6,0,0,0,.59.59h2.14a2.36,2.36,0,0,0,4.57,0H28.56a2.35,2.35,0,0,0,4.56,0h2.14a.59.59,0,0,0,.59-.59v-5.9A2.06,2.06,0,0,0,33.79,21.41ZM16.11,30.55a1.18,1.18,0,1,1,1.17-1.18A1.18,1.18,0,0,1,16.11,30.55Zm14.73,0A1.18,1.18,0,1,1,32,29.37,1.18,1.18,0,0,1,30.84,30.55Zm3.83-1.77H33.12a2.35,2.35,0,0,0-4.56,0H27V22.63h2.36a.59.59,0,0,0,0-1.18H27V18.17h2.77a.88.88,0,0,1,.84.6l1.14,3.42a.58.58,0,0,0,.56.4h1.47a.88.88,0,0,1,.88.88Z"/><path class="cls-2" d="M10.21,22.59H20.53a.59.59,0,0,0,0-1.18H10.21a.59.59,0,1,0,0,1.18Z"/><path class="cls-2" d="M11.68,18.17h8.85a.6.6,0,0,0,.59-.59.59.59,0,0,0-.59-.59H11.68a.59.59,0,0,0-.59.59A.6.6,0,0,0,11.68,18.17Z"/></g></g></svg>