<svg xmlns="http://www.w3.org/2000/svg" viewBox="0 0 44 44"><defs><style>.cls-1{fill:#94c733;stroke:#fff;stroke-miterlimit:10;stroke-width:2px;}.cls-2{fill:#fff;}</style></defs><title>youtubeready-to-ship-active</title><g id="Layer_2" data-name="Layer 2"><g id="Gráfica"><circle class="cls-1" cx="22" cy="22" r="21"/><circle class="cls-2" cx="7.63" cy="19.05" r="0.59"/><circle class="cls-2" cx="6.16" cy="21.97" r="0.59"/><path class="cls-2" d="M9.11,25.61H13v2.27a.59.59,0,0,0,.35.54l10.3,4.42h0a.59.59,0,0,0,.23,0H24l.11,0h0l10.33-4.4a.6.6,0,0,0,.36-.55V16.1h0a.77.77,0,0,0,0-.15l0,0a.08.08,0,0,0,0,0l0-.07v0a.58.58,0,0,0-.1-.12l0,0-.12-.07h0L24.07,11.14a.61.61,0,0,0-.46,0L13.3,15.56h0l-.12.07,0,0a.58.58,0,0,0-.1.12l0,0,0,.07s0,0,0,0,0,0,0,0a.39.39,0,0,0,0,.15h0v2.35H10.58a.59.59,0,0,0-.59.59.58.58,0,0,0,.59.59h2.95a.58.58,0,0,0,.59-.59V17l9.13,3.91v2.56h0v2.94h0v5l-9.12-3.91V25a.58.58,0,0,0-.59-.58H9.11a.59.59,0,1,0,0,1.17Zm23.54-9.5-8.81,3.77-3.66-1.56L29,14.54Zm-8.22,7.82v-.07l3.24-1.39v1.66l-3.24,1.39Zm0,7.48V26.8l4.07-1.74a.58.58,0,0,0,.35-.54V21.57a.61.61,0,0,0-.26-.49A.59.59,0,0,0,28,21l-3.6,1.55V20.91L33.56,17V27.51Zm-.58-19.08,3.66,1.56-8.81,3.78L15,16.11Z"/><path class="cls-2" d="M9.11,22.56h4.42a.59.59,0,0,0,0-1.18H9.11a.59.59,0,0,0,0,1.18Z"/></g></g></svg>