<svg xmlns="http://www.w3.org/2000/svg" viewBox="0 0 125.46 40"><defs><style>.cls-1{fill:#fff;}</style></defs><title>logo-with-label-white</title><g id="Layer_2" data-name="Layer 2"><g id="Gráfica"><path class="cls-1" d="M40.32,22.41a.56.56,0,0,0-.85-.09,8,8,0,0,1-4.94,1.6c-3.48,0-5.69-2.1-6-5.75H41.34a1.08,1.08,0,0,0,1.08-1.08h0c0-5.21-3.33-8.84-8.11-8.84s-8.22,3.73-8.22,9,3.4,9,8.22,9a8.83,8.83,0,0,0,6.41-2.43.57.57,0,0,0,.05-.73Zm-6-12.07c3.29,0,5.54,2.29,5.86,5.73H28.41C28.81,12.66,31,10.34,34.35,10.34ZM15.06,0h1.5a.57.57,0,0,1,.53.77L8.17,25.29a.59.59,0,0,1-.54.37H5.86a.56.56,0,0,1-.53-.37L0,10.75A.57.57,0,0,1,.57,10h1.5a.58.58,0,0,1,.54.38L6.75,21.75,14.53.38A.56.56,0,0,1,15.06,0ZM26.2,0h1.5a.57.57,0,0,1,.53.77L19.31,25.29a.58.58,0,0,1-.54.37H17a.58.58,0,0,1-.54-.37L12.75,15.06l1.35-3.73,3.79,10.42L25.67.38A.56.56,0,0,1,26.2,0Z"/><path class="cls-1" d="M98.23,8.83l0,1a.57.57,0,0,1-.59.56,5.07,5.07,0,0,0-5.54,5.4v9.29a.57.57,0,0,1-.57.57H90a.57.57,0,0,1-.57-.57v-16A.58.58,0,0,1,90,8.55h1.47a.58.58,0,0,1,.57.57v2C92.84,9.57,94,8,97.7,8.25A.58.58,0,0,1,98.23,8.83Zm10.55,0,0,1a.57.57,0,0,1-.59.56,5.07,5.07,0,0,0-5.54,5.4v9.29a.57.57,0,0,1-.57.57h-1.47a.57.57,0,0,1-.57-.57v-16a.58.58,0,0,1,.57-.57h1.47a.58.58,0,0,1,.57.57v2c.76-1.52,2-3.11,5.61-2.84A.58.58,0,0,1,108.78,8.83Zm-25.24.29v2.05a8.19,8.19,0,0,0-6.1-2.78A8.67,8.67,0,0,0,69,17.3a8.67,8.67,0,0,0,8.4,8.91,8.16,8.16,0,0,0,6.1-2.79v1.67a.56.56,0,0,0,.57.57H85.5a.56.56,0,0,0,.57-.57v-16a.57.57,0,0,0-.57-.57H84.11A.57.57,0,0,0,83.54,9.12Zm-6,14.73a6.29,6.29,0,0,1-6-6.55,6.3,6.3,0,0,1,6-6.56c3.3,0,6,2.94,6,6.56A6.28,6.28,0,0,1,77.56,23.85ZM122.71,8.91l-4.66,12.82L113.39,8.91a.58.58,0,0,0-.54-.37h-1.64a.57.57,0,0,0-.54.76l6,16.35h0l-2.84,7.8a.58.58,0,0,0,.54.77H116a.56.56,0,0,0,.53-.38l3-8.19,6-16.35a.56.56,0,0,0-.53-.76h-1.64A.59.59,0,0,0,122.71,8.91ZM66.23,21.46a10.25,10.25,0,0,1-6.93,2.23A10.33,10.33,0,1,1,66.22,5.27.56.56,0,0,0,67,5.15L67.82,4a.57.57,0,0,0-.12-.78A12.75,12.75,0,0,0,59.14.56a12.83,12.83,0,0,0,.67,25.65,12.75,12.75,0,0,0,7.9-2.73.57.57,0,0,0,.12-.78l-.78-1.12A.58.58,0,0,0,66.23,21.46Z"/><path class="cls-1" d="M23.12,35a.07.07,0,0,1,.08-.08h1.69A1.55,1.55,0,0,1,26.52,36a4.28,4.28,0,0,1,.14,1.44,4.24,4.24,0,0,1-.14,1.44,1.54,1.54,0,0,1-1.63,1.07H23.2a.07.07,0,0,1-.08-.07Zm.7,4.33h.93a1,1,0,0,0,1.14-.69,3.6,3.6,0,0,0,.1-1.21,3.64,3.64,0,0,0-.1-1.21c-.16-.49-.54-.68-1.14-.68h-.93s0,0,0,0v3.7S23.79,39.31,23.82,39.31Z"/><path class="cls-1" d="M27.69,35a.07.07,0,0,1,.07-.08h3a.07.07,0,0,1,.07.08v.46a.07.07,0,0,1-.07.08H28.39s-.05,0-.05,0V37a0,0,0,0,0,.05,0h2a.07.07,0,0,1,.07.07v.47a.07.07,0,0,1-.07.07h-2a0,0,0,0,0-.05.05v1.52a0,0,0,0,0,.05.05h2.39a.07.07,0,0,1,.07.07v.47a.07.07,0,0,1-.07.07h-3a.07.07,0,0,1-.07-.07Z"/><path class="cls-1" d="M34.79,39.92a.06.06,0,0,1-.07-.07V35.56s0,0,0,0H33.3a.07.07,0,0,1-.07-.08V35a.07.07,0,0,1,.07-.08h3.49a.07.07,0,0,1,.07.08v.46a.07.07,0,0,1-.07.08H35.42s-.05,0-.05,0v4.29a.07.07,0,0,1-.07.07Z"/><path class="cls-1" d="M37.67,38.17V35a.07.07,0,0,1,.07-.08h.51a.07.07,0,0,1,.08.08v3.18a1.12,1.12,0,1,0,2.23,0V35a.07.07,0,0,1,.07-.08h.51a.07.07,0,0,1,.08.08v3.19a1.78,1.78,0,1,1-3.55,0Z"/><path class="cls-1" d="M47.83,39.92s-.06,0-.08-.07l-1.07-3.74h0l-1.06,3.74a.11.11,0,0,1-.09.07h-.41a.08.08,0,0,1-.08-.07L43.82,35s0-.08.06-.08h.49a.09.09,0,0,1,.09.08l.89,3.72h0l1-3.72s.05-.08.09-.08h.38c.05,0,.07,0,.09.08L48,38.7h0L48.9,35a.11.11,0,0,1,.1-.08h.48c.05,0,.06,0,.06.08l-1.21,4.87a.1.1,0,0,1-.09.07Z"/><path class="cls-1" d="M50.38,35a.07.07,0,0,1,.07-.08h3a.07.07,0,0,1,.07.08v.46a.07.07,0,0,1-.07.08H51.08s0,0,0,0V37a0,0,0,0,0,0,0h2a.07.07,0,0,1,.07.07v.47a.07.07,0,0,1-.07.07h-2a0,0,0,0,0,0,.05v1.52a0,0,0,0,0,0,.05h2.39a.07.07,0,0,1,.07.07v.47a.07.07,0,0,1-.07.07h-3a.07.07,0,0,1-.07-.07Z"/><path class="cls-1" d="M54.47,35a.07.07,0,0,1,.07-.08h1.78c1,0,1.51.52,1.51,1.32a1.09,1.09,0,0,1-.67,1.1h0a1.16,1.16,0,0,1,.76,1.16c0,.93-.59,1.43-1.64,1.43H54.54a.07.07,0,0,1-.07-.07Zm1.83,2.09a.79.79,0,1,0,0-1.57H55.17a0,0,0,0,0-.05,0V37s0,0,.05,0Zm-1.13,2.25h1.17c.6,0,.92-.32.92-.82a.8.8,0,0,0-.92-.83H55.17s-.05,0-.05,0v1.57S55.14,39.32,55.17,39.32Z"/><path class="cls-1" d="M62.07,35s0-.08.08-.08h.48c.06,0,.08,0,.1.08l1.72,4.87a.05.05,0,0,1,0,.07h-.52a.1.1,0,0,1-.1-.07l-.38-1.1h-2L61,39.85a.1.1,0,0,1-.1.07h-.51c-.05,0-.07,0-.05-.07Zm1.12,3.17-.79-2.28h0l-.79,2.28Z"/><path class="cls-1" d="M66.85,39.37a.08.08,0,0,1,0-.11l.32-.38a.07.07,0,0,1,.11,0,2.27,2.27,0,0,0,1.4.52c.69,0,1.1-.35,1.1-.86s-.24-.71-1-.82l-.25,0c-1-.14-1.48-.6-1.48-1.39a1.46,1.46,0,0,1,1.64-1.47,2.57,2.57,0,0,1,1.52.47s0,.06,0,.1l-.25.41a.08.08,0,0,1-.1,0,2.26,2.26,0,0,0-1.21-.38c-.62,0-1,.34-1,.82s.28.7,1.06.8l.24,0c1,.13,1.48.58,1.48,1.4S69.82,40,68.61,40A2.72,2.72,0,0,1,66.85,39.37Z"/><path class="cls-1" d="M71.36,38.17V35a.07.07,0,0,1,.07-.08h.51A.07.07,0,0,1,72,35v3.18a1.12,1.12,0,1,0,2.24,0V35a.07.07,0,0,1,.07-.08h.51a.07.07,0,0,1,.07.08v3.19a1.77,1.77,0,1,1-3.54,0Z"/><path class="cls-1" d="M78,39.92a.07.07,0,0,1-.07-.07V35A.07.07,0,0,1,78,34.9h1.79a1.5,1.5,0,1,1,0,3H78.65s0,0,0,0v1.91a.07.07,0,0,1-.08.07Zm2.73-3.52a.86.86,0,0,0-1-.88H78.65s0,0,0,0v1.68s0,0,0,0h1.12A.86.86,0,0,0,80.75,36.4Z"/><path class="cls-1" d="M82.27,38.17V35a.07.07,0,0,1,.08-.08h.51a.07.07,0,0,1,.07.08v3.18a1.12,1.12,0,1,0,2.24,0V35s0-.08.07-.08h.51a.07.07,0,0,1,.07.08v3.19a1.78,1.78,0,1,1-3.55,0Z"/><path class="cls-1" d="M87,35A.07.07,0,0,1,87,34.9h3a.07.07,0,0,1,.07.08v.46a.07.07,0,0,1-.07.08H87.67s0,0,0,0V37a0,0,0,0,0,0,0h2a.07.07,0,0,1,.08.07v.47a.07.07,0,0,1-.08.07h-2a0,0,0,0,0,0,.05v1.52a0,0,0,0,0,0,.05h2.39a.07.07,0,0,1,.07.07v.47a.07.07,0,0,1-.07.07H87a.07.07,0,0,1-.07-.07Z"/><path class="cls-1" d="M94,39.92s-.07,0-.09-.07l-1-2.06h-1.1a0,0,0,0,0-.05.05v2a.07.07,0,0,1-.07.07h-.51a.07.07,0,0,1-.07-.07V35a.07.07,0,0,1,.07-.08h1.81a1.43,1.43,0,0,1,1.57,1.45,1.36,1.36,0,0,1-1,1.36l1.07,2.12a.06.06,0,0,1,0,.09Zm-.1-3.57c0-.52-.35-.83-.93-.83H91.76s-.05,0-.05,0v1.58s0,0,.05,0h1.17C93.51,37.18,93.86,36.87,93.86,36.35Z"/><path class="cls-1" d="M96.73,39.92a.07.07,0,0,1-.07-.07V35.56s0,0,0,0H95.24a.07.07,0,0,1-.07-.08V35a.07.07,0,0,1,.07-.08h3.49a.07.07,0,0,1,.08.08v.46a.07.07,0,0,1-.08.08H97.36s0,0,0,0v4.29a.07.07,0,0,1-.08.07Z"/><path class="cls-1" d="M100.39,35s0-.08.09-.08H101a.11.11,0,0,1,.1.08l1.71,4.87s0,.07,0,.07h-.51c-.06,0-.09,0-.1-.07l-.38-1.1h-2l-.39,1.1a.09.09,0,0,1-.09.07H98.7a.05.05,0,0,1,0-.07Zm1.12,3.17-.79-2.28h0l-.8,2.28Z"/></g></g></svg>