<svg id="Layer_1" data-name="Layer 1" xmlns="http://www.w3.org/2000/svg" viewBox="0 0 393.41 107.3"><defs><style>.cls-1{fill:#fff;}</style></defs><title>we_carry-white</title><path class="cls-1" d="M129.74,216.63a1.76,1.76,0,0,0-2.66-.29c-3.45,3.26-10.48,5-15.52,5-10.9,0-17.82-6.58-18.73-18.05h40.1a3.38,3.38,0,0,0,3.39-3.38v0c0-16.35-10.45-27.7-25.44-27.7S85.11,183.9,85.11,200.37s10.67,28.16,25.77,28.16c8.37,0,15.6-2.89,20.1-7.62a1.8,1.8,0,0,0,.17-2.27ZM111,178.79c10.33,0,17.37,7.16,18.39,17.94h-37C93.62,186.06,100.44,178.79,111,178.79ZM50.52,146.35h4.69a1.79,1.79,0,0,1,1.68,2.4l-28,76.9a1.78,1.78,0,0,1-1.68,1.17H21.68A1.8,1.8,0,0,1,20,225.65L3.4,180.05a1.79,1.79,0,0,1,1.68-2.4H9.79a1.79,1.79,0,0,1,1.68,1.18l13,35.71,24.39-67A1.79,1.79,0,0,1,50.52,146.35Zm34.94,0h4.69a1.79,1.79,0,0,1,1.68,2.4l-28,76.9a1.78,1.78,0,0,1-1.68,1.17H56.62a1.8,1.8,0,0,1-1.68-1.17L43.26,193.56l4.26-11.68,11.87,32.66,24.39-67A1.79,1.79,0,0,1,85.46,146.35Z" transform="translate(-3.29 -146.35)"/><path class="cls-1" d="M311.31,174l-.05,3.18a1.79,1.79,0,0,1-1.84,1.75c-10.37-.28-17.38,6.39-17.38,16.92V225a1.79,1.79,0,0,1-1.79,1.78h-4.6a1.79,1.79,0,0,1-1.79-1.78V175a1.79,1.79,0,0,1,1.79-1.79h4.6A1.79,1.79,0,0,1,292,175v6.16c2.38-4.77,6.11-9.75,17.61-8.91A1.79,1.79,0,0,1,311.31,174Zm33.09,0-.06,3.18A1.79,1.79,0,0,1,342.5,179c-10.37-.28-17.38,6.39-17.38,16.92V225a1.79,1.79,0,0,1-1.79,1.78h-4.6A1.78,1.78,0,0,1,317,225V175a1.79,1.79,0,0,1,1.78-1.79h4.6a1.79,1.79,0,0,1,1.79,1.79v6.16c2.39-4.77,6.12-9.75,17.61-8.91A1.81,1.81,0,0,1,344.4,174Zm-79.15.93v6.41a25.58,25.58,0,0,0-19.11-8.72c-14.55,0-26.35,12.51-26.35,27.93s11.8,27.94,26.35,27.94a25.61,25.61,0,0,0,19.11-8.72V225a1.79,1.79,0,0,0,1.79,1.78h4.37A1.79,1.79,0,0,0,273.2,225V175a1.79,1.79,0,0,0-1.79-1.79H267A1.79,1.79,0,0,0,265.25,175Zm-18.76,46.18c-10.35,0-18.75-9.21-18.75-20.56S236.14,180,246.49,180s18.76,9.2,18.76,20.55S256.85,221.15,246.49,221.15ZM388.1,174.3l-14.63,40.19L358.86,174.3a1.78,1.78,0,0,0-1.68-1.17H352a1.79,1.79,0,0,0-1.68,2.4L369,226.77h0l-8.91,24.48a1.79,1.79,0,0,0,1.69,2.4h5.13a1.79,1.79,0,0,0,1.68-1.18l9.35-25.7,18.66-51.24a1.79,1.79,0,0,0-1.68-2.4h-5.14A1.8,1.8,0,0,0,388.1,174.3ZM211,213.66a32.39,32.39,0,1,1-.05-50.77,1.78,1.78,0,0,0,2.57-.37L216,159a1.8,1.8,0,0,0-.39-2.45,40.24,40.24,0,1,0,0,63.43,1.81,1.81,0,0,0,.38-2.45L213.55,214A1.77,1.77,0,0,0,211,213.66Z" transform="translate(-3.29 -146.35)"/></svg>